<?xml version="1.0" standalone="no"?><!DOCTYPE svg PUBLIC "-//W3C//DTD SVG 1.1//EN" "http://www.w3.org/Graphics/SVG/1.1/DTD/svg11.dtd"><svg t="1585186596390" class="icon" viewBox="0 0 1024 1024" version="1.1" xmlns="http://www.w3.org/2000/svg" p-id="3141" xmlns:xlink="http://www.w3.org/1999/xlink" width="200" height="200"><defs><style type="text/css"></style></defs><path d="M512.1 960.13c247.42 0 448-200.58 448-448s-200.58-448-448-448-448 200.58-448 448 200.58 448 448 448z m0-821.34c205.86 0 373.33 167.48 373.33 373.33S717.96 885.46 512.1 885.46 138.77 717.98 138.77 512.13 306.24 138.79 512.1 138.79z" p-id="3142" fill="#1afa29"></path><path d="M492.66 723.06h38.88c9.88 0 17.89-8.01 17.89-17.89V442.29c0-9.88-8.01-17.89-17.89-17.89h-38.88c-9.88 0-17.89 8.01-17.89 17.89v262.88c0 9.88 8.01 17.89 17.89 17.89zM492.66 375.86h38.88c9.88 0 17.89-8.01 17.89-17.89v-38.88c0-9.88-8.01-17.89-17.89-17.89h-38.88c-9.88 0-17.89 8.01-17.89 17.89v38.88c0 9.88 8.01 17.89 17.89 17.89z" p-id="3143" fill="#1afa29"></path></svg>