<?xml version="1.0" standalone="no"?><!DOCTYPE svg PUBLIC "-//W3C//DTD SVG 1.1//EN" "http://www.w3.org/Graphics/SVG/1.1/DTD/svg11.dtd"><svg t="1585037357307" class="icon" viewBox="0 0 1024 1024" version="1.1" xmlns="http://www.w3.org/2000/svg" p-id="1689" xmlns:xlink="http://www.w3.org/1999/xlink" width="200" height="200"><defs><style type="text/css"></style></defs><path d="M634.88 566.613333c54.613333-40.96 95.573333-102.4 95.573333-177.493333 0-122.88-95.573333-218.453333-218.453333-218.453333S293.546667 266.24 293.546667 389.12c0 75.093333 40.96 143.36 95.573333 177.493333-95.573333 40.96-170.666667 136.533333-184.32 252.586667 0 20.48 13.653333 34.133333 27.306667 34.133333s27.306667-13.653333 27.306666-27.306666c13.653333-122.88 116.053333-218.453333 245.76-218.453334s232.106667 95.573333 245.76 218.453334c0 13.653333 13.653333 27.306667 27.306667 27.306666 20.48 0 34.133333-13.653333 27.306667-34.133333 0-116.053333-75.093333-211.626667-170.666667-252.586667zM512 546.133333C430.08 546.133333 354.986667 477.866667 354.986667 389.12c0-88.746667 68.266667-157.013333 157.013333-157.013333 81.92 0 157.013333 68.266667 157.013333 157.013333C669.013333 471.04 593.92 546.133333 512 546.133333z" fill="#221815" p-id="1690"></path></svg>