<?xml version="1.0" standalone="no"?><!DOCTYPE svg PUBLIC "-//W3C//DTD SVG 1.1//EN" "http://www.w3.org/Graphics/SVG/1.1/DTD/svg11.dtd"><svg t="1580556424876" class="icon" viewBox="0 0 1024 1024" version="1.1" xmlns="http://www.w3.org/2000/svg" p-id="5356" xmlns:xlink="http://www.w3.org/1999/xlink" width="48" height="48"><defs><style type="text/css"></style></defs><path d="M495.968 1024c-49.376 0-91.104-14.4-124.096-42.816-33.216-28.608-50.08-62.048-50.08-99.328 0-18.144 6.592-33.76 19.616-46.464 13.248-12.928 29.792-19.744 47.84-19.744 18.016 0 34.208 6.4 46.816 18.528 12.48 11.968 18.784 27.808 18.784 47.104 0 11.328-1.856 23.808-5.504 37.152-3.616 13.184-4.384 19.936-4.384 23.296 0 3.68 0.928 8.064 7.776 12.768 12.768 8.832 28.064 13.088 46.88 13.088 22.592 0 42.72-7.872 61.568-24.032 18.592-15.936 27.616-32.32 27.616-50.048 0-19.744-5.28-36.832-16.128-52.256-18.336-25.76-52.864-55.968-102.624-89.664-79.872-53.44-133.056-99.776-162.592-141.504-22.88-32.672-34.464-67.904-34.464-104.704 0-37.056 12.128-73.952 36.096-109.632 20.512-30.56 50.816-58.112 90.24-82.144-21.088-22.688-36.896-44.064-47.104-63.68-12.864-24.768-19.392-50.368-19.392-76.128 0-47.808 18.912-89.152 56.192-122.88s83.872-50.88 138.336-50.88c50.08 0 92.192 14.08 125.184 41.856 33.312 28.096 50.208 60.896 50.208 97.536 0 18.656-6.976 35.36-20.768 49.664l-0.288 0.288c-7.968 7.936-22.624 17.376-47.04 17.376-19.136 0-35.936-6.272-48.544-18.144-12.544-11.808-18.944-25.92-18.944-41.952 0-6.944 1.696-17.408 5.344-32.992 1.792-7.36 2.656-14.144 2.656-20.256 0-10.336-3.712-18.272-11.712-24.96-8.288-6.944-20.096-10.304-36.128-10.304-24.864 0-45.28 7.552-62.4 23.104-17.184 15.616-25.536 34.08-25.536 56.512 0 20.16 4.576 36.768 13.568 49.376 17.12 23.936 46.784 49.792 88.224 76.832 84.16 54.592 142.912 104.672 174.528 148.832 23.36 33.12 35.168 68.352 35.168 104.8 0 36.608-11.872 73.504-35.328 109.664-20.192 31.168-50.72 59.264-90.88 83.712 22.176 23.456 37.824 44.032 47.552 62.528 12.096 22.976 18.208 48.064 18.208 74.528 0 49.664-18.912 91.872-56.256 125.408s-83.872 50.56-138.304 50.56zM446.4 356.352c-48.224 28.96-71.712 62.176-71.712 101.312 0 22.752 6.496 43.136 19.872 62.272 19.936 27.936 59.264 62.048 116.8 101.28 24.352 16.576 46.368 32.704 65.6 48.064 49.056-29.504 72.96-62.368 72.96-100.192 0-20.608-8.128-42.784-24.192-65.92-16.8-24.192-52.864-55.808-107.136-93.92-28.32-19.552-52.544-37.344-72.16-52.928z" p-id="5357"></path></svg>