<?xml version="1.0" standalone="no"?><!DOCTYPE svg PUBLIC "-//W3C//DTD SVG 1.1//EN" "http://www.w3.org/Graphics/SVG/1.1/DTD/svg11.dtd"><svg t="1581550573739" class="icon" viewBox="0 0 1024 1024" version="1.1" xmlns="http://www.w3.org/2000/svg" p-id="1892" xmlns:xlink="http://www.w3.org/1999/xlink" width="48" height="48"><defs><style type="text/css"></style></defs><path d="M512 204.8a307.2 307.2 0 1 1 0 614.4 307.2 307.2 0 0 1 0-614.4z m0 51.2a256 256 0 1 0 0 512 256 256 0 0 0 0-512z m-25.856 111.616c0-13.7216 10.9568-24.832 24.4736-24.832s24.4736 11.1104 24.4736 24.832v187.392a24.6784 24.6784 0 0 1-24.4736 24.8832 24.6784 24.6784 0 0 1-24.4736-24.832V367.616z m24.4736 314.2144a35.1232 35.1232 0 0 1-34.816-35.3792c0-19.5584 15.5648-35.4304 34.816-35.4304 19.2512 0 34.816 15.872 34.816 35.4304a35.1232 35.1232 0 0 1-34.816 35.3792z" p-id="1893" fill="#d81e06"></path></svg>